<?xml version="1.0" encoding="UTF-8"?>
<!DOCTYPE svg PUBLIC "-//W3C//DTD SVG 1.1//EN" "http://www.w3.org/Graphics/SVG/1.1/DTD/svg11.dtd">
<!-- Creator: CorelDRAW -->
<svg xmlns="http://www.w3.org/2000/svg" xml:space="preserve" width="22.1286mm" height="22.1286mm" version="1.1" style="shape-rendering:geometricPrecision; text-rendering:geometricPrecision; image-rendering:optimizeQuality; fill-rule:evenodd; clip-rule:evenodd"
viewBox="0 0 605.42 605.42"
 xmlns:xlink="http://www.w3.org/1999/xlink"
 xmlns:xodm="http://www.corel.com/coreldraw/odm/2003">
 <defs>
  <style type="text/css">
   <![CDATA[
    .fil0 {fill:none}
    .fil4 {fill:#E41474}
    .fil5 {fill:#E41A73}
    .fil3 {fill:#EC146C}
    .fil2 {fill:#EC1474}
    .fil1 {fill:#F40D77}
    .fil6 {fill:#F70D77}
   ]]>
  </style>
 </defs>
 <g id="Layer_x0020_1">
  <metadata id="CorelCorpID_0Corel-Layer"/>
  <g id="_2690612178416">
   <rect class="fil0" width="605.42" height="605.42"/>
   <g>
    <path class="fil1" d="M179.78 470.79c-9.95,3.17 -42.06,44.5 -51.08,55.38l-23.85 28.64c-8.1,14.65 4.56,31.42 18.69,30.51 14.36,-0.92 19.82,-14.08 27.68,-24.85l44.54 -61.61c3.52,-5.7 6.85,-13.21 2.7,-20.68 -3.08,-5.55 -10.77,-9.91 -18.69,-7.39z"/>
    <path class="fil2" d="M250.29 323.96c-3.64,4.24 -8.04,5.73 -5.29,14.53 1.68,5.36 7.09,8.45 13.67,6.77 8.79,-2.25 14.16,-22.76 -8.37,-21.29z"/>
    <path class="fil2" d="M272.36 357c-2.74,21.41 18,18.82 20.36,10.42 2.03,-7.26 -0.6,-12.76 -5.67,-14.62 -7.49,-2.74 -10.98,0.65 -14.68,4.19z"/>
    <path class="fil2" d="M390.31 276.8c-5.37,1.56 -9.81,4.83 -8.65,11.75 0.98,5.78 5.93,10.03 13.69,8.31 12.56,-2.79 9.3,-24.25 -5.05,-20.06z"/>
    <path class="fil3" d="M377.12 389.7c3.07,-3.24 7.52,-7.15 4.62,-14.58 -1.83,-4.68 -7.98,-7.54 -14.16,-5.36 -8.92,3.15 -11.09,22.57 9.55,19.93z"/>
    <path class="fil2" d="M409.79 255.51c-0.05,20.66 17.71,18.16 20.52,7.81 1.42,-5.23 -1.02,-11.53 -6.34,-13.32 -7.8,-2.63 -10.69,1.91 -14.18,5.51z"/>
    <path class="fil2" d="M252.46 289.11c17.88,-0.77 14.64,-20.57 2.59,-21.46 -12.16,-0.91 -16.81,14.82 -2.59,21.46z"/>
    <path class="fil2" d="M335.12 284.62c-14.47,4.89 -7.37,24.23 6.38,20.11 11.99,-3.59 6.71,-24.54 -6.38,-20.11z"/>
    <path class="fil2" d="M307.43 380.26c-2.41,20.71 15.97,19.1 19.19,10.31 4.6,-12.59 -7.15,-21.29 -19.19,-10.31z"/>
    <path class="fil2" d="M356.34 198.43c-5.09,2.51 -8.62,6.44 -5.72,13.38 1.98,4.74 7.27,8.5 14.2,5.89 10.47,-3.96 5.59,-26.2 -8.48,-19.27z"/>
    <path class="fil3" d="M306.14 258.34c-13.65,4.73 -7.66,23.41 6.25,19.84 12.77,-3.28 7.23,-24.51 -6.25,-19.84z"/>
    <path class="fil2" d="M289.2 291.96c-18.97,-2.15 -18.1,16.54 -8.46,20.06 11.97,4.37 20.12,-10.27 8.46,-20.06z"/>
    <path class="fil2" d="M269.68 235.01c-13.24,6.75 -3.56,23.79 8.27,19.07 12.59,-5.03 4.76,-25.71 -8.27,-19.07z"/>
    <path class="fil2" d="M346.89 361.07c2.45,-2.89 5.9,-5.71 5.51,-11.65 -1.01,-15.18 -23.87,-10.27 -20.27,3.89 3.23,7.01 5.37,8.03 14.76,7.76z"/>
    <path class="fil2" d="M410.44 354.2c0.17,-7.95 -0.57,-13.34 -7.52,-14.92 -14.41,-3.27 -16.94,17.35 -5.81,20.31 2.99,0.8 6.41,0.28 8.79,-1.05 4.72,-2.62 1.15,-1.29 4.54,-4.35z"/>
    <path class="fil4" d="M325.98 227.54c-9.17,17.61 8.61,22.41 14.86,16.05 8.41,-8.55 0.63,-22.81 -14.86,-16.05z"/>
    <path class="fil2" d="M387.95 226c-11.27,8.24 1.38,25.73 12.47,16.7 10.05,-8.17 -1.42,-24.77 -12.47,-16.7z"/>
    <path class="fil5" d="M308.88 206.17c-26.8,-16.52 -24.62,23.24 -4.59,15.2 6.02,-2.42 4.98,-8.74 4.59,-15.2z"/>
    <path class="fil4" d="M432.09 326.67c12.4,-11.51 -0.17,-18.17 -1.43,-19.65 -7.97,0.28 -14.47,2.2 -13.93,10.61 0.57,8.79 6.55,10.41 15.36,9.04z"/>
    <path class="fil2" d="M369.08 329.4l9.38 0.3c10.4,-12.01 4.29,-14.14 -0.45,-20.32l-9.01 0.34c-7.2,6.56 -7.46,13.24 0.08,19.68z"/>
    <path class="fil2" d="M361.14 271.7c7.67,1.2 11.77,1.48 13.88,-5.72 6.65,-22.65 -34.46,-14.42 -13.88,5.72z"/>
    <path class="fil4" d="M303.64 318.85l0.1 9.64c2.18,5.08 16.06,9.63 19.07,-0.62 0.97,-3.31 0.58,-4.44 0.45,-7.7 -8.6,-9.09 -10.41,-7.53 -19.62,-1.32z"/>
    <path class="fil6" d="M223.77 444.9c-4.57,-8.47 -6.16,-31.87 -2.81,-43.04 1.19,-3.98 0.68,-1.81 1.32,-2.92 24.23,15.82 15.68,17.88 58,35.4 -4.9,3.37 -6.39,2.37 -12.95,3.41 -12.7,2.01 -31.98,7.2 -43.56,7.16zm-34.54 -111.12c2.07,3.9 4.46,13.56 4.84,19.03l-86.37 -4.1c1,-2.36 7,-3 9.49,-3.49l72.04 -11.45zm280.03 -21.16c-3.47,20.95 -7.96,30.75 -17.77,45.48 -4.27,6.41 -9.15,11.33 -14.25,17.31 -45.22,53.08 -144.61,71.1 -195.32,9.52 -71.3,-86.56 4.01,-236.01 111.39,-207.26 45.84,12.27 88.98,41.13 107.29,81.66 6.79,15.04 11.69,35.04 8.66,53.29zm-281.13 -23.8c-32.28,0.74 -64.8,7.84 -97.73,7.85 0.28,-0.21 0.67,-0.93 0.83,-0.66l22.5 -5.26c13.5,-2.73 70.94,-12.46 77.84,-11.56l-3.43 9.63zm-77.42 -52.71c9.21,-6.24 88.51,-18.24 105.04,-19.05 -0.34,6.73 -0.77,9.7 -3.93,14.25l-101.11 4.8zm-44.79 18.41c-5.36,0.33 -54.54,4.7 -59.06,8.22l0.28 3.96c4.28,1.99 111.74,-3.05 128.87,-2.4 -4.95,3.73 -27.31,6.36 -33.33,7.36 -12.43,2.07 -23.83,3.67 -36.19,6.04l-0.6 19.28 -47.73 4.11 -0.18 5.93 117.62 7.69 -117.67 13.61c-0.29,6.95 1.45,6.96 21.26,9.91 8.34,1.24 19.57,2.48 26.67,4.62l0.11 30.03 -38.94 4.52c-7.17,0.86 -8.53,-1.1 -9.6,4.79 1.47,1.19 -0.01,1.78 6.57,1.9l25.03 -0.76c10.27,-0.53 21.15,-0.68 31.37,-1.48 16.1,-1.27 46.8,-3.9 62.56,-1.51 -12.28,3.98 -70.78,9.58 -75.22,12.54 -1.39,1.67 -0.97,-1.57 -1.74,3.69l-0.09 94.55c0,15.39 -1.98,34.31 6.78,43.26 22.65,23.13 42.15,-12.91 57.72,-30.11l46.32 -54.71c4.41,-5.51 7.98,-7.48 8.05,-17.47 0.06,-8.57 0.15,-17.68 -0.13,-26.22l-52.74 -3.95c6.11,-3.49 57.03,-12.82 66.58,-13.26 0.2,17.77 -7.53,52.88 -4.74,66.87 1.57,7.85 9.61,16.07 16.75,18.49 10,3.38 20.7,-1.44 30.17,-3.81 19.52,-4.86 37.68,-10.58 57.8,-14.49 32.75,-6.36 57.12,-6.48 87.54,-20.1 40.79,-18.26 75.21,-44.55 94.1,-86.97 47.39,-106.43 -63.78,-194.78 -141.02,-197.64 -27.58,-1.02 -40.17,0.63 -63.11,9.18 -24.8,9.25 -37.19,22.24 -47.59,24.49 -9.56,2.07 -21.88,2.42 -31.58,3.68 -10.75,1.39 -21.91,3.53 -32.31,4.79 -10.75,1.29 -56.28,10.27 -62.67,6.59 8.26,-5.39 26.73,-9.55 38.18,-12.63 11.7,-3.14 32.52,-5.88 40.97,-10.29 4.46,-12.31 -1.08,-47.7 1.69,-64.12 7.18,-4.25 48.73,-2.11 60.59,-2.1 21.44,0.03 42.88,-0.1 64.31,0.02 53.2,0.3 100.53,13.45 132.57,57.61 13.79,19 36.48,19.91 60.23,68.34 25,50.99 17.38,102.93 -16.34,146.18 -2.56,3.29 -3.92,4.7 -7.15,8.63 -19.3,23.45 -3.44,3.54 -17.68,29.66 -35.35,64.89 -102.93,80.94 -173.95,81.28 -18.6,0.09 -46.91,-1.51 -64.31,0.95 -7.16,6.31 -77.57,87.25 -79.62,92.85 15.46,10.25 160.73,10.23 188.52,8.28 64.42,-4.53 110.39,-15.61 155.43,-45.78 38.5,-25.79 67.99,-62.93 87.79,-111.81 18.98,-46.84 29.36,-118.44 24.13,-175.91 -5.92,-65.07 -16.26,-106.08 -45.15,-154.19 -21.96,-36.58 -63.39,-72.99 -108.49,-92.42 -55.17,-23.77 -109.8,-24.23 -176.68,-24.28 -33.24,-0.02 -66.51,0.15 -99.75,0.06 -32.91,-0.09 -68.7,1.39 -101.2,-0.08l-0.04 254.53z"/>
   </g>
  </g>
 </g>
</svg>
