<?xml version="1.0" encoding="UTF-8"?>
<!DOCTYPE svg PUBLIC "-//W3C//DTD SVG 1.1//EN" "http://www.w3.org/Graphics/SVG/1.1/DTD/svg11.dtd">
<!-- Creator: CorelDRAW -->
<svg xmlns="http://www.w3.org/2000/svg" xml:space="preserve" width="42.0588mm" height="15.7143mm" version="1.1" style="shape-rendering:geometricPrecision; text-rendering:geometricPrecision; image-rendering:optimizeQuality; fill-rule:evenodd; clip-rule:evenodd"
viewBox="0 0 3899.87 1457.1"
 xmlns:xlink="http://www.w3.org/1999/xlink"
 xmlns:xodm="http://www.corel.com/coreldraw/odm/2003">
 <defs>
  <style type="text/css">
   <![CDATA[
    .fil6 {fill:#C82668}
    .fil8 {fill:#E41474}
    .fil9 {fill:#E41A73}
    .fil7 {fill:#EC146C}
    .fil4 {fill:#EC1474}
    .fil3 {fill:#F31273}
    .fil2 {fill:#F40D77}
    .fil1 {fill:#F50F79}
    .fil5 {fill:#F60E75}
    .fil0 {fill:#F70D77}
   ]]>
  </style>
 </defs>
 <g id="Layer_x0020_1">
  <metadata id="CorelCorpID_0Corel-Layer"/>
  <g id="_2690613074160">
   <path class="fil0" d="M2997.82 1070.79c-11.01,-20.39 -14.82,-76.69 -6.76,-103.6 2.87,-9.58 1.63,-4.36 3.17,-7.03 58.31,38.07 37.76,43.03 139.61,85.2 -11.79,8.12 -15.37,5.7 -31.16,8.2 -30.56,4.83 -76.97,17.32 -104.85,17.24zm-83.14 -267.44c4.98,9.39 10.75,32.64 11.66,45.81l-207.87 -9.87c2.4,-5.67 16.85,-7.22 22.84,-8.38l173.38 -27.56zm673.97 -50.92c-8.36,50.43 -19.17,74.01 -42.76,109.45 -10.27,15.44 -22.02,27.27 -34.28,41.66 -108.83,127.76 -348.04,171.11 -470.1,22.92 -171.61,-208.33 9.64,-568.04 268.08,-498.84 110.33,29.54 214.15,98.98 258.22,196.55 16.34,36.19 28.13,84.32 20.84,128.26zm-676.61 -57.28c-77.7,1.79 -155.97,18.87 -235.22,18.91 0.68,-0.51 1.62,-2.23 1.99,-1.59l54.14 -12.68c32.5,-6.56 170.74,-30.01 187.35,-27.83l-8.26 23.18zm-186.34 -126.86c22.15,-15.02 213.03,-43.91 252.8,-45.84 -0.82,16.2 -1.85,23.35 -9.46,34.29l-243.35 11.55zm-107.81 44.3c-12.91,0.79 -131.27,11.3 -142.15,19.8l0.68 9.51c10.31,4.8 268.94,-7.34 310.17,-5.79 -11.92,8.98 -65.73,15.31 -80.22,17.73 -29.91,4.98 -57.35,8.83 -87.11,14.53l-1.43 46.39 -114.87 9.9 -0.43 14.27 283.08 18.51 -283.2 32.74c-0.7,16.73 3.49,16.75 51.17,23.84 20.07,2.99 47.09,5.97 64.19,11.11l0.27 72.29 -93.72 10.89c-17.26,2.08 -20.51,-2.64 -23.11,11.53 3.55,2.86 -0.03,4.27 15.83,4.57l60.23 -1.83c24.69,-1.27 50.91,-1.63 75.49,-3.57 38.74,-3.05 112.63,-9.39 150.57,-3.64 -29.56,9.6 -170.35,23.07 -181.03,30.2 -3.36,4.02 -2.33,-3.77 -4.19,8.88l-0.22 227.56c0,37.05 -4.78,82.58 16.32,104.12 54.52,55.67 101.44,-31.06 138.93,-72.47l111.47 -131.68c10.63,-13.26 19.2,-17.99 19.39,-42.05 0.15,-20.63 0.36,-42.53 -0.32,-63.09l-126.94 -9.5c14.71,-8.4 137.26,-30.85 160.26,-31.9 0.48,42.76 -18.14,127.27 -11.41,160.94 3.77,18.9 23.12,38.68 40.32,44.5 24.06,8.14 49.82,-3.47 72.61,-9.15 46.96,-11.71 90.68,-25.46 139.11,-34.87 78.82,-15.32 137.47,-15.61 210.68,-48.38 98.16,-43.96 181,-107.22 226.46,-209.33 114.05,-256.16 -153.51,-468.79 -339.4,-475.67 -66.36,-2.46 -96.69,1.5 -151.88,22.08 -59.69,22.26 -89.51,53.52 -114.54,58.96 -23.01,4.99 -52.66,5.83 -76.01,8.86 -25.87,3.36 -52.74,8.5 -77.76,11.52 -25.86,3.12 -135.45,24.71 -150.84,15.87 19.89,-12.96 64.33,-22.98 91.9,-30.39 28.17,-7.57 78.28,-14.17 98.6,-24.78 10.76,-29.62 -2.59,-114.8 4.07,-154.33 17.27,-10.23 117.28,-5.09 145.85,-5.04 51.58,0.06 103.19,-0.25 154.78,0.04 128.03,0.71 241.95,32.37 319.07,138.67 33.18,45.72 87.81,47.92 144.95,164.47 60.17,122.72 41.83,247.72 -39.32,351.82 -6.16,7.9 -9.43,11.31 -17.21,20.77 -46.45,56.44 -8.29,8.52 -42.54,71.38 -85.08,156.18 -247.73,194.8 -418.66,195.61 -44.78,0.21 -112.91,-3.63 -154.78,2.28 -17.24,15.19 -186.7,209.99 -191.62,223.47 37.2,24.68 386.84,24.64 453.72,19.94 155.04,-10.9 265.67,-37.57 374.08,-110.19 92.65,-62.07 163.63,-151.47 211.29,-269.1 45.69,-112.74 70.67,-285.06 58.08,-423.39 -14.25,-156.6 -39.14,-255.33 -108.65,-371.1 -52.86,-88.04 -152.57,-175.68 -261.11,-222.43 -132.8,-57.2 -264.26,-58.32 -425.22,-58.43 -80.01,-0.05 -160.07,0.37 -240.07,0.15 -79.21,-0.22 -165.34,3.34 -243.56,-0.19l-0.11 612.59z"/>
   <path class="fil0" d="M313.46 1168.1l262.67 0.23 189.64 -515.65c12.94,-33.83 24.81,-69.01 37.74,-104.31 13.09,-35.77 24.99,-69.27 37.79,-104.31 8.35,-22.86 35.83,-86.25 36.86,-104.93l-199.47 -0.74 -233.66 660.28c-11.4,-17.93 -21.91,-59.49 -29.63,-80.63 -9.75,-26.7 -19.09,-54.51 -28.67,-81.81l-116.39 -332.2c-9.49,-27.98 -18.92,-53.72 -28.97,-81.63 -5.53,-15.35 -22.31,-71.95 -30.1,-83.02l-211.28 -1.07c0.07,17.85 29.72,84.05 37.42,104.38l196.95 517.37c11.05,29.9 70.35,193.46 79.09,208.02z"/>
   <path class="fil1" d="M1122.96 904.71c6.57,57.7 6.9,105.53 -35.77,123.44 -37.53,15.75 -98.17,16.76 -126.2,-8.3 -25.14,-22.48 -28.83,-76.64 24.06,-103.54 38.17,-19.41 90.47,-15.37 137.91,-11.61zm-324.79 -247.05c7.2,9.03 90.83,82.77 108.07,88.89 9.07,-0.34 53.58,-40.78 132.67,-41.41 64.2,-0.51 87.36,24.02 84.49,88.32 -60.65,7.93 -193.56,-19.64 -285.27,48.66 -60.24,44.88 -90.55,91.69 -84.99,178.31 9.39,146.54 166.14,175.8 283.31,146.75 19.98,-4.95 38.34,-12.64 54.3,-21.97 19.48,-11.4 24.99,-21.73 39.76,-34.92 10.13,13.59 4.82,40.02 12.46,55.94l178.36 1.81c4.22,-17.27 0.52,-273.5 0.52,-314.53 -0.03,-105.43 8.52,-205.52 -55.97,-258.77 -81.78,-67.55 -277.55,-67.39 -382.46,-10.62 -22.17,12.01 -80.97,49.26 -85.26,73.54z"/>
   <path class="fil0" d="M2271.83 902.83c5.18,15.36 5.37,63.2 1.21,79.29 -6.03,23.31 -18.24,33.48 -36.87,41.7 -37.69,16.63 -104.07,17.58 -128.65,-10.1 -33.21,-37.4 -12.11,-84.4 25.28,-101.89 32.24,-15.07 99.68,-17.51 139.04,-9zm-333.57 -248.33c4.74,13.3 94.92,90.72 102,90.83 11.43,0.18 64.88,-41.55 138.99,-41.93 69.54,-0.36 96.53,17.9 91.09,89.09 -109.14,6.6 -171.76,-13.15 -262.98,37.59 -160.84,89.46 -130.17,322.23 51.89,342.67 65.7,7.39 130.21,2.4 185.24,-32.75 21.99,-14.05 24.43,-20.91 39,-36.03 7.76,12.89 8.19,39.25 9.29,56.89l180.77 0.51c-1.16,-104.9 -0.03,-209.81 -0.1,-314.18 -0.06,-109.79 -2.7,-195.84 -68.78,-247.51 -89.05,-69.64 -270.14,-75.82 -379.66,-17.27 -29.24,15.63 -71.56,47.22 -86.74,72.08z"/>
   <path class="fil0" d="M1503.26 982.66c-19.12,1.73 -128.02,45.22 -140.38,54.06 6.01,48.26 61.35,92.61 96.4,110.69 123.99,63.96 403.85,43.21 414.33,-148.44 8.28,-151.45 -76.15,-187.02 -202.71,-215.66 -30.35,-6.87 -54.39,-9.41 -83.64,-20.47 -31.77,-12.01 -40.5,-36.55 -15.29,-58.59 18.43,-16.12 57.8,-18.12 84.49,-9.85 37.19,11.53 51.4,39.02 61.62,41.6 10.24,0 58.78,-15.98 73.98,-20.24 15.56,-4.36 58.69,-13.43 71.81,-23.36 -1.39,-49.34 -58.18,-98.28 -94.39,-117.58 -129.41,-68.94 -408.03,-39.74 -397.76,177.56 6.48,137.15 109.71,164.83 231.78,190.63 22.13,4.68 62.94,13.02 79.14,25.13 26.95,20.15 7.45,50.41 -21.16,59.34 -40.13,12.55 -96.33,6.74 -129.92,-19 -12.91,-9.89 -17.7,-18.06 -28.29,-25.81z"/>
   <path class="fil2" d="M1042.72 95.53c47.26,-1.34 96.81,-1.53 130.89,23.16 30.14,21.85 47.77,56.08 48.11,106.18 0.8,118.99 -92.13,128.81 -179.5,126.54l0.5 -255.88zm-101.88 337.65c86.26,2.49 205.63,9.84 273.7,-22.89 139.92,-67.26 153.26,-298.92 1.22,-378.13 -66.3,-34.55 -189.19,-25.77 -274.37,-25.05l-0.56 426.08z"/>
   <path class="fil2" d="M1465.25 243.46c4.12,-31.1 22.27,-52.77 56.93,-52.99 34.82,-0.22 54.61,19.67 57.65,53.1l-114.58 -0.11zm188.53 139.37c-6.98,-13.7 -10.42,-12.46 -23.99,-25.41 -8.33,-7.95 -16.93,-16.8 -25.45,-21.47 -13.19,8.09 -18.82,17.91 -33.78,25.49 -46.73,23.7 -112.55,4.93 -111.04,-56.85l214.29 -0.14c0.7,-56.24 1.38,-79.95 -23.31,-122.51 -51.28,-88.39 -226.76,-97.73 -278.21,38.3 -47.66,126 45.12,256.08 191.89,223.34 19.8,-4.42 34.7,-11.97 50.47,-21.89l30.92 -26.03c6.16,-7.11 5.06,-6.54 8.21,-12.83z"/>
   <path class="fil2" d="M2277.52 243.17c11.32,-72.95 112.07,-69.81 116.84,0.44l-116.84 -0.44zm192.19 139.66c-5.84,-9.42 -42.84,-43.29 -53.55,-46.52 -11.92,7.54 -14.59,17.11 -33.01,26 -51.34,24.77 -114.62,-2.44 -111.19,-57.44l214.36 -0.46c16.45,-66.21 -14.07,-160.87 -105.93,-182.74 -154.07,-36.7 -234.22,111.32 -194.03,225.37 37.36,106 168.89,125.15 246.18,74.41 10.97,-7.2 33.43,-25.36 37.15,-38.61z"/>
   <path class="fil0" d="M1870.32 432.44l283.51 1.18 0.09 -85.57 -177.93 -0.5 -2.98 -322.04c0.4,-12.21 9.18,-17.51 -21.11,-16.83l-80.22 0.26 -1.37 423.5z"/>
   <path class="fil2" d="M2891.96 1133.08c-23.95,7.61 -101.24,107.12 -122.93,133.28l-57.39 68.94c-19.5,35.26 10.98,75.61 44.98,73.43 34.57,-2.22 47.7,-33.89 66.61,-59.8l107.2 -148.29c8.47,-13.71 16.48,-31.79 6.5,-49.77 -7.41,-13.36 -25.93,-23.85 -44.97,-17.78z"/>
   <path class="fil3" d="M2123.59 1300.37c47.45,-2.79 78.54,5.12 77.74,55.41 -0.76,47.46 -32.29,56.49 -78.95,52.65l1.21 -108.06zm-32.53 137.19c34.09,2.42 77.5,2.93 103.61,-9.68 24.08,-11.64 41.28,-41.36 41.26,-72.07 -0.08,-86.72 -65.37,-87 -145.35,-83.14l0.47 164.88z"/>
   <path class="fil4" d="M1951.92 1367.77c0.57,-12.31 5.13,-19.19 9.35,-31.17 2.01,-5.73 2.31,-9.06 4.28,-14.58 5.66,-15.76 1.82,-7.48 8.25,-10.71l18.35 56.15 -40.23 0.31zm-60.24 69.78l31.7 0.66c0.44,-1.12 1.12,-2.83 1.28,-2.38 0.7,1.98 10.84,-31.21 17.67,-40.99l59.39 -0.52c4.59,15.2 11.42,29.96 15.67,43.38l33.58 0.41c-4.63,-24.41 -21.85,-60.71 -30.63,-84.2l-27.42 -70.73c-2.5,-5.81 -2.73,-5.87 -6.36,-10.75l-31.6 0.03 -9.18 20.25c-3.04,7.62 -4.77,12.61 -8.01,20.87l-31.2 82.31c-4.65,11.82 -11.74,29.28 -14.89,41.67z"/>
   <path class="fil4" d="M1787.66 1299.38c33.52,-1.11 55.46,-4.02 52.43,34.27 -11.12,19.47 -27.1,16.56 -52.37,15.8l-0.06 -50.07zm0.57 79.49c26.51,-2 47.86,2.12 66.97,-12.55 15.74,-12.1 24.45,-31.69 18.59,-55.33 -12.39,-49.94 -64.24,-39.36 -118.05,-40.21l0.86 167.16 31.12 0.1 0.51 -59.19z"/>
   <path class="fil4" d="M2434.44 1438.08l108.35 -0.45 -0.34 -28.89 -72.71 -1.55c-6.24,-12.88 -2.47,-119.1 -2.79,-134.53l-32.25 0.38 -0.26 165.04z"/>
   <path class="fil5" d="M2306.19 1341.8c8.1,-5.57 3.47,0.16 1.39,-6.57 -3.24,-10.53 -1.34,-2.21 -0.77,-11.6 0.87,-14.42 -2.78,-14.25 1.02,-25.93l73.59 -1.3 4.03 -19.54c-22.48,-2.91 -72.15,-1.72 -93.16,4.8 -5.28,28.98 -6.8,119.35 0.51,147.3 21.51,7.85 71.46,6.78 91.86,2.61 -0.39,-9.88 -1.18,-5.1 -1.64,-16.67 -23.17,-1.9 -58.34,3.89 -77.33,-5.44 0.58,-18.94 7.73,-14.99 0.04,-37.91 18.34,-17.97 12.59,-8.09 34.84,-7.91 15.43,0.12 33.99,2.02 27.26,-15.34l-35.93 -0.61c-13.15,1.72 -12.94,-2.45 -25.7,-5.9z"/>
   <path class="fil6" d="M2306.19 1341.8c12.77,3.45 12.55,7.61 25.7,5.9l35.93 0.61c6.73,17.36 -11.83,15.46 -27.26,15.34 -22.24,-0.19 -16.5,-10.06 -34.84,7.91 7.7,22.91 0.55,18.96 -0.04,37.91 18.99,9.33 54.16,3.54 77.33,5.44 0.46,11.57 1.25,6.79 1.64,16.67 -20.4,4.16 -70.35,5.24 -91.86,-2.61 -7.31,-27.95 -5.79,-118.33 -0.51,-147.3 21.01,-6.52 70.68,-7.71 93.16,-4.8l-4.03 19.54 -73.59 1.3c-3.8,11.68 -0.15,11.52 -1.02,25.93 -0.57,9.39 -2.47,1.07 0.77,11.6 2.08,6.73 6.71,1 -1.39,6.57zm9.08 -41.78l75.68 -0.51 -0.05 -26.9 -107.88 0.34 -0.68 165.41 109.09 -0.6 -0.24 -28.56 -73.6 -1.8 -2.2 -39.43 63.4 -0.29 0.57 -28.23 -64.6 -0.49 0.5 -38.95z"/>
   <path class="fil4" d="M3061.65 779.71c-8.75,10.2 -19.35,13.78 -12.73,34.97 4.02,12.91 17.06,20.33 32.88,16.28 21.17,-5.42 34.09,-54.78 -20.15,-51.25z"/>
   <path class="fil4" d="M3114.77 859.22c-6.61,51.52 43.33,45.3 48.99,25.09 4.89,-17.48 -1.45,-30.72 -13.66,-35.18 -18.02,-6.58 -26.42,1.56 -35.33,10.09z"/>
   <path class="fil4" d="M3398.66 666.21c-12.91,3.76 -23.61,11.65 -20.8,28.28 2.35,13.91 14.28,24.15 32.95,20 30.24,-6.71 22.39,-58.35 -12.16,-48.28z"/>
   <path class="fil7" d="M3366.9 937.93c7.39,-7.8 18.1,-17.22 11.11,-35.09 -4.41,-11.28 -19.21,-18.15 -34.09,-12.89 -21.47,7.58 -26.69,54.32 22.99,47.98z"/>
   <path class="fil4" d="M3445.52 614.95c-0.11,49.74 42.62,43.71 49.38,18.8 3.42,-12.59 -2.44,-27.74 -15.24,-32.06 -18.78,-6.32 -25.72,4.6 -34.14,13.26z"/>
   <path class="fil4" d="M3066.89 695.82c43.02,-1.85 35.23,-49.5 6.22,-51.66 -29.26,-2.18 -40.46,35.66 -6.22,51.66z"/>
   <path class="fil4" d="M3265.83 685.01c-34.83,11.78 -17.73,58.31 15.35,48.4 28.85,-8.64 16.15,-59.06 -15.35,-48.4z"/>
   <path class="fil4" d="M3199.19 915.21c-5.81,49.84 38.44,45.96 46.18,24.81 11.07,-30.3 -17.21,-51.25 -46.18,-24.81z"/>
   <path class="fil4" d="M3316.89 477.58c-12.25,6.04 -20.75,15.49 -13.77,32.19 4.77,11.41 17.5,20.46 34.17,14.18 25.2,-9.52 13.45,-63.06 -20.4,-46.37z"/>
   <path class="fil7" d="M3196.07 621.76c-32.84,11.39 -18.44,56.34 15.04,47.73 30.73,-7.89 17.4,-58.98 -15.04,-47.73z"/>
   <path class="fil4" d="M3155.3 702.68c-45.68,-5.17 -43.57,39.8 -20.38,48.27 28.8,10.52 48.42,-24.71 20.38,-48.27z"/>
   <path class="fil4" d="M3108.33 565.61c-31.87,16.25 -8.56,57.26 19.89,45.9 30.29,-12.1 11.45,-61.87 -19.89,-45.9z"/>
   <path class="fil4" d="M3294.14 869.02c5.91,-6.96 14.21,-13.74 13.26,-28.05 -2.42,-36.53 -57.44,-24.71 -48.77,9.37 7.77,16.88 12.93,19.33 35.51,18.67z"/>
   <path class="fil4" d="M3447.11 852.49c0.41,-19.14 -1.38,-32.11 -18.11,-35.9 -34.67,-7.87 -40.76,41.76 -13.98,48.89 7.2,1.91 15.43,0.67 21.16,-2.52 11.36,-6.32 2.77,-3.12 10.93,-10.47z"/>
   <path class="fil8" d="M3243.84 547.65c-22.08,42.38 20.72,53.94 35.76,38.63 20.24,-20.58 1.52,-54.9 -35.76,-38.63z"/>
   <path class="fil4" d="M3392.98 543.94c-27.14,19.82 3.32,61.91 30.01,40.2 24.18,-19.68 -3.43,-59.61 -30.01,-40.2z"/>
   <path class="fil9" d="M3202.67 496.2c-64.5,-39.76 -59.26,55.94 -11.04,36.59 14.48,-5.81 11.98,-21.02 11.04,-36.59z"/>
   <path class="fil8" d="M3499.22 786.22c29.83,-27.71 -0.41,-43.72 -3.46,-47.3 -19.18,0.69 -34.84,5.29 -33.53,25.54 1.36,21.16 15.76,25.06 36.99,21.76z"/>
   <path class="fil4" d="M3347.54 792.8l22.59 0.72c25.04,-28.89 10.31,-34.04 -1.08,-48.92l-21.7 0.83c-17.33,15.8 -17.94,31.86 0.19,47.37z"/>
   <path class="fil4" d="M3328.44 653.93c18.47,2.9 28.33,3.57 33.41,-13.76 15.99,-54.5 -82.92,-34.71 -33.41,13.76z"/>
   <path class="fil8" d="M3190.06 767.4l0.23 23.21c5.25,12.23 38.66,23.17 45.91,-1.48 2.34,-7.97 1.4,-10.68 1.09,-18.54 -20.7,-21.86 -25.04,-18.13 -47.23,-3.18z"/>
  </g>
 </g>
</svg>
